#!OML:ASF F:\VICON\USERDATA\INSTALL\Justin_Nancy\Justin_Nancy.ASF
:FULLY-SPECIFIED
:DEGREES
82
root -8.42681 17.5273 -19.7311 1.04154 -6.30002 -0.661437
lowerback 5.5459 1.25707 -0.0508504
upperback -0.4066 1.73811 1.8561
thorax -3.5893 0.882699 1.7946
lowerneck -16.9302 -3.34822 -9.51248
upperneck 20.7589 -3.39021 5.5667
head 9.62975 -1.7097 3.07268
rclavicle 2.07978e-014 5.96354e-015
rhumerus -25.0479 -11.1919 -81.2829
rradius 35.045
rwrist 4.51097
rhand -15.3584 10.5918
rfingers 7.12502
rthumb 10.8191 -19.1096
lclavicle 2.07978e-014 5.96354e-015
lhumerus -36.4134 24.6556 77.0187
lradius 17.4708
lwrist -18.5344
lhand -15.6978 24.1785
lfingers 7.12502
lthumb 10.4917 53.8967
rfemur 3.45738 1.59532 24.4573
rtibia 38.818
rfoot -2.51342 -1.97226
rtoes -11.4874
lfemur -22.009 -0.540873 -21.7456
ltibia 22.8696
lfoot -2.28975 -2.86003
ltoes -0.419738
83
root -8.40777 17.5395 -19.5727 0.965142 -6.19388 -0.631329
lowerback 5.55875 1.2554 0.195132
upperback -0.271476 1.74419 1.69588
thorax -3.44431 0.878674 1.49159
lowerneck -17.4218 -3.50842 -9.37027
upperneck 20.794 -3.61068 5.58768
head 9.74931 -1.7915 3.0238
rclavicle 8.3738e-015 -3.57812e-015
rhumerus -25.2149 -12.6123 -81.1765
rradius 34.4224
rwrist 5.49926
rhand -15.2951 12.8383
rfingers 7.12502
rthumb 10.8801 -16.8599
lclavicle 8.3738e-015 -3.57812e-015
lhumerus -36.0837 24.2695 77.1254
lradius 17.5941
lwrist -18.2419
lhand -15.9189 23.8613
lfingers 7.12502
lthumb 10.2784 53.5902
rfemur 2.17139 1.1081 24.0645
rtibia 41.3468
rfoot 0.390811 -1.36769
rtoes -7.69805
lfemur -21.4083 -0.248482 -21.9726
ltibia 22.9572
lfoot -2.33479 -3.20621
ltoes 0.945152
84
root -8.39295 17.5489 -19.4159 0.798215 -6.10394 -0.503371
lowerback 5.72456 1.22728 0.120711
upperback -0.222852 1.70054 1.63282
thorax -3.48632 0.85754 1.46907
lowerneck -17.738 -3.50317 -9.15881
upperneck 20.938 -3.61382 5.49231
head 9.85283 -1.78391 2.95451
rclavicle -4.05024e-015 8.74653e-015
rhumerus -25.5937 -13.5813 -81.0019
rradius 33.9938
rwrist 6.23014
rhand -15.3892 13.5532
rfingers 7.12502
rthumb 10.7894 -16.1496
lclavicle -4.05024e-015 8.74653e-015
lhumerus -35.9793 24.0868 77.2393
lradius 17.8121
lwrist -17.9937
lhand -15.3533 24.5744
lfingers 7.12502
lthumb 10.824 54.2755
rfemur 0.955444 0.593854 23.6123
rtibia 43.7865
rfoot 3.22899 -0.391326
rtoes -5.43911
lfemur -20.6255 0.0563225 -22.3021
ltibia 22.8542
lfoot -2.41621 -3.40358
ltoes 1.80158
85
root -8.37637 17.5652 -19.25 0.574494 -6.23185 -0.239133
lowerback 5.7966 1.20202 -0.138045
upperback -0.236284 1.65049 1.643
thorax -3.54712 0.837663 1.62768
lowerneck -17.6731 -3.41834 -9.20061
upperneck 21.0516 -3.46481 5.37669
head 9.8679 -1.73401 2.94323
rclavicle 5.1684e-015 2.78299e-015
rhumerus -26.0938 -13.7218 -80.8107
rradius 33.8054
rwrist 6.07172
rhand -14.947 13.0822
rfingers 7.12502
rthumb 11.2158 -16.598
lclavicle 5.1684e-015 2.78299e-015
lhumerus -36.1848 24.0209 77.3446
lradius 17.9919
lwrist -17.8883
lhand -15.1803 25.3547
lfingers 7.12502
lthumb 10.9908 55.047
rfemur -0.223389 0.378898 23.0312
rtibia 46.1216
rfoot 5.44267 0.357451
rtoes -1.24117
lfemur -19.664 0.357045 -22.7531
ltibia 22.6452
lfoot -2.86983 -3.58021
ltoes 2.98195
86
root -8.35926 17.5839 -19.0749 0.365863 -6.36117 0.466393
lowerback 5.53768 1.16758 -0.697847
upperback -0.0348799 1.55601 1.41169
thorax -3.19897 0.795979 1.71847
lowerneck -17.9471 -3.3255 -9.16689
upperneck 21.0461 -3.33237 5.43707
head 9.90594 -1.65925 2.97643
rclavicle -1.6201e-014 -3.97569e-015
rhumerus -26.1723 -14.062 -80.8675
rradius 33.5094
rwrist 6.05814
rhand -14.3086 12.7892
rfingers 7.12502
rthumb 11.8316 -16.8565
lclavicle -1.6201e-014 -3.97569e-015
lhumerus -35.8674 23.3176 77.7762
lradius 18.2873
lwrist -17.1475
lhand -16.0358 24.5891
lfingers 7.12502
lthumb 10.1656 54.3235
rfemur -1.4585 0.106158 21.9405
rtibia 48.4121
rfoot 7.10502 0.752153
rtoes 4.39019
lfemur -18.6654 0.472762 -23.6932
ltibia 22.3215
lfoot -3.49515 -3.59226
ltoes 4.02922
87
root -8.34675 17.5911 -18.9133 0.192903 -6.36483 0.868753
lowerback 5.44334 1.15831 -0.973705
upperback 0.173512 1.51969 1.25365
thorax -2.93248 0.778005 1.71733
lowerneck -18.2515 -3.3384 -9.22047
upperneck 20.9737 -3.34249 5.59911
head 9.94109 -1.64433 3.03938
rclavicle 6.5102e-015 -5.56597e-015
rhumerus -26.2256 -14.7623 -80.8523
rradius 33.2556
rwrist 6.15702
rhand -14.2645 12.1535
rfingers 7.12502
rthumb 11.874 -17.4898
lclavicle 6.5102e-015 -5.56597e-015
lhumerus -35.3295 22.2897 78.4301
lradius 18.6326
lwrist -16.1514
lhand -16.9411 23.7127
lfingers 7.12502
lthumb 9.29215 53.4879
rfemur -2.68241 -0.142832 21.328
rtibia 50.6457
rfoot 7.78003 1.06515
rtoes 7.14331
lfemur -17.7279 0.63518 -24.2902
ltibia 21.9193
lfoot -3.85932 -3.73644
ltoes 4.38879
88
root -8.34279 17.5992 -18.7659 0.0709584 -6.38364 1.23067
lowerback 5.64604 1.16352 -1.41383
upperback 0.144414 1.49506 1.17725
thorax -3.08465 0.772759 1.88371
lowerneck -18.1112 -3.39434 -9.18333
upperneck 20.703 -3.42028 5.53162
head 9.82364 -1.68388 2.99455
rclavicle 2.36057e-015 -3.97569e-016
rhumerus -26.8103 -14.9348 -80.837
rradius 33.4011
rwrist 5.83406
rhand -13.9967 10.1615
rfingers 7.12502
rthumb 12.1323 -19.4667
lclavicle 2.36057e-015 -3.97569e-016
lhumerus -35.0906 21.2749 78.9364
lradius 18.8856
lwrist -15.361
lhand -16.6091 24.1654
lfingers 7.12502
lthumb 9.61251 53.9261
rfemur -4.04892 -0.254427 20.8623
rtibia 52.8917
rfoot 7.95204 1.18571
rtoes 7.17338
lfemur -16.8593 0.827781 -24.8008
ltibia 21.5156
lfoot -3.99516 -3.88154
ltoes 2.99699
89
root -8.33171 17.609 -18.6157 0.0072642 -6.28978 1.6825
lowerback 5.77375 1.10393 -1.7702
upperback 0.119768 1.38545 1.01256
thorax -3.18136 0.723363 1.9208
lowerneck -18.1777 -3.44201 -9.13457
upperneck 20.5037 -3.47387 5.4722
head 9.7679 -1.70836 2.95446
rclavicle -7.70291e-016 -1.66979e-014
rhumerus -27.2996 -14.9702 -80.8849
rradius 33.3948
rwrist 5.63168
rhand -13.3471 7.62001
rfingers 7.12502
rthumb 12.7586 -21.9702
lclavicle -7.70291e-016 -1.66979e-014
lhumerus -34.8795 20.1224 79.4179
lradius 19.3385
lwrist -14.7173
lhand -17.0676 23.5534
lfingers 7.12502
lthumb 9.17015 53.334
rfemur -5.46953 -0.481659 20.2463
rtibia 55.0843
rfoot 7.9624 0.643487
rtoes 7.2296
lfemur -16.1336 0.677831 -25.4025
ltibia 21.3078
lfoot -4.29819 -3.75343
ltoes 3.33791
90
root -8.31822 17.6109 -18.4699 -0.0339748 -6.07664 2.17227
lowerback 5.83231 0.9608 -2.16799
upperback 0.15458 1.16325 0.891078
thorax -3.17325 0.617473 2.03761
lowerneck -18.3819 -3.41044 -9.33911
upperneck 20.4126 -3.3849 5.62849
head 9.77278 -1.66146 3.05428
rclavicle 2.0773e-014 -3.97569e-016
rhumerus -27.2982 -14.9195 -80.8745
rradius 32.7579
rwrist 5.67898
rhand -12.9327 6.30685
rfingers 7.12502
rthumb 13.158 -23.258
lclavicle 2.0773e-014 -3.97569e-016
lhumerus -34.5864 19.0946 79.9548
lradius 19.9037
lwrist -14.198
lhand -16.1229 24.4961
lfingers 7.12502
lthumb 10.0816 54.2346
rfemur -6.91869 -0.835169 19.591
rtibia 57.1708
rfoot 7.54207 -0.503727
rtoes 7.70652
lfemur -15.4436 0.671308 -26.0859
ltibia 21.0105
lfoot -4.56885 -3.86198
ltoes 4.17828
91
root -8.31096 17.6117 -18.3283 -0.14401 -6.15181 2.34903
lowerback 6.02821 0.913398 -2.40159
upperback 0.11306 1.07981 0.894193
thorax -3.32634 0.581869 2.17671
lowerneck -18.224 -3.29423 -9.39171
upperneck 20.241 -3.22306 5.65029
head 9.67067 -1.5883 3.09166
rclavicle -9.11925e-015 2.78299e-015
rhumerus -27.3957 -15.049 -80.7861
rradius 31.9416
rwrist 6.05297
rhand -12.8319 6.84104
rfingers 7.12502
rthumb 13.2552 -22.7175
lclavicle -9.11925e-015 2.78299e-015
lhumerus -34.4451 18.2829 80.3459
lradius 20.3405
lwrist -14.0495
lhand -14.3583 27.5648
lfingers 7.12502
lthumb 11.7836 57.2133
rfemur -8.35718 -0.963827 19.3505
rtibia 59.0626
rfoot 6.60962 -1.93287
rtoes 6.51857
lfemur -14.6475 0.989957 -26.3878
ltibia 20.6725
lfoot -4.77611 -4.01624
ltoes 4.4095
92
root -8.30414 17.6299 -18.1794 -0.218099 -6.19602 2.60696
lowerback 6.02216 0.841927 -2.69484
upperback 0.102389 0.963989 0.885179
thorax -3.33238 0.529105 2.34288
lowerneck -18.0215 -3.21189 -9.36964
upperneck 20.053 -3.08914 5.48237
head 9.5533 -1.54388 3.04502
rclavicle -1.58034e-014 -4.77083e-015
rhumerus -27.6374 -14.7438 -80.778
rradius 31.4441
rwrist 6.22537
rhand -13.0605 8.45867
rfingers 7.12502
rthumb 13.0348 -21.1141
lclavicle -1.58034e-014 -4.77083e-015
lhumerus -34.1792 18.2777 80.3233
lradius 20.1347
lwrist -14.1968
lhand -14.8447 26.3043
lfingers 7.12502
lthumb 11.3146 55.9791
rfemur -9.79718 -1.0766 19.0313
rtibia 60.7231
rfoot 5.39647 -3.48764
rtoes 4.83348
lfemur -13.8751 1.30206 -26.7597
ltibia 20.4038
lfoot -5.1599 -4.20117
ltoes 4.92151
93
root -8.29823 17.6417 -18.0304 -0.267482 -6.11203 2.87448
lowerback 6.06597 0.7155 -2.99987
upperback 0.0930206 0.772196 0.86393
thorax -3.35891 0.438982 2.50951
lowerneck -17.9688 -3.12719 -9.50516
upperneck 19.9036 -2.96259 5.60545
head 9.48468 -1.48046 3.12638
rclavicle 8.97016e-015 1.43125e-014
rhumerus -27.8618 -14.5317 -80.8443
rradius 31.1153
rwrist 6.51253
rhand -13.3035 10.4093
rfingers 7.12502
rthumb 12.8006 -19.1783
lclavicle 8.97016e-015 1.43125e-014
lhumerus -33.7702 17.9493 80.5143
lradius 20.2813
lwrist -14.318
lhand -13.0358 29.0936
lfingers 7.12502
lthumb 13.0587 58.6648
rfemur -11.1519 -1.28559 18.6973
rtibia 62.1557
rfoot 4.49555 -4.42526
rtoes 5.12974
lfemur -13.1825 1.52769 -27.1441
ltibia 20.2194
lfoot -5.71538 -4.42482
ltoes 4.55787
94
root -8.29167 17.6409 -17.8889 -0.385128 -5.9817 2.97079
lowerback 6.16327 0.585067 -3.12697
upperback 0.170101 0.589171 0.923859
thorax -3.32362 0.348793 2.65944
lowerneck -18.0134 -3.05283 -9.62595
upperneck 19.7497 -2.81401 5.59935
head 9.42855 -1.41847 3.16202
rclavicle -4.91992e-015 -4.37326e-015
rhumerus -27.9603 -14.4365 -80.7968
rradius 30.7729
rwrist 6.99237
rhand -13.2032 11.167
rfingers 7.12502
rthumb 12.8973 -18.4144
lclavicle -4.91992e-015 -4.37326e-015
lhumerus -33.4102 17.9112 80.6127
lradius 20.4053
lwrist -14.5709
lhand -11.4269 30.2182
lfingers 7.12502
lthumb 14.6092 59.6837
rfemur -12.3787 -1.50075 18.5775
rtibia 63.402
rfoot 3.96404 -5.09143
rtoes 6.34805
lfemur -12.4682 1.71548 -27.3316
ltibia 20.0709
lfoot -6.26668 -4.58546
ltoes 5.64441
